<svg id="Layer_1" data-name="Layer 1" xmlns="http://www.w3.org/2000/svg" viewBox="0 0 604.45 90.81">
    <style>svg { background-color: rgba(0,0,0,0); }</style>
    <defs>
        <style>.cls-1{fill:#44ea87;}.cls-2{fill:#ffa836;}.cls-3{fill:#8f48ff;}</style>
    </defs>
    <title>code_lingo_logo</title>
    <path d="M336.47,505.31a32.65,32.65,0,0,1-12.6-12.72,39.77,39.77,0,0,1,0-37.17,32.69,32.69,0,0,1,12.6-12.71,35.12,35.12,0,0,1,17.61-4.52,31.48,31.48,0,0,1,25.41,11.92l-5,3.22a23.93,23.93,0,0,0-8.76-7.31,25.57,25.57,0,0,0-11.67-2.75,28,28,0,0,0-14.51,3.88,27.67,27.67,0,0,0-10.31,10.91,35.31,35.31,0,0,0,0,31.79,27.94,27.94,0,0,0,10.31,11,27.55,27.55,0,0,0,14.51,3.93A25.56,25.56,0,0,0,365.75,502a23.93,23.93,0,0,0,8.76-7.31l5,3.11a31.53,31.53,0,0,1-25.41,12A35.11,35.11,0,0,1,336.47,505.31Z" transform="translate(-197.78 -437.98)" />
    <path d="M398.51,506.35a23.42,23.42,0,0,1-8.45-9.51,29.65,29.65,0,0,1-3-13.4,29.27,29.27,0,0,1,3-13.34,23.47,23.47,0,0,1,8.45-9.46,22.88,22.88,0,0,1,12.59-3.48,23.36,23.36,0,0,1,12.76,3.48,23,23,0,0,1,8.45,9.46,29.77,29.77,0,0,1,2.95,13.34,30.15,30.15,0,0,1-2.95,13.4,23,23,0,0,1-8.45,9.51,23.35,23.35,0,0,1-12.76,3.47A22.87,22.87,0,0,1,398.51,506.35ZM421,502.08a18.81,18.81,0,0,0,6.33-7.94,26.31,26.31,0,0,0,2.17-10.7,26,26,0,0,0-2.17-10.65,18.88,18.88,0,0,0-6.33-7.88,17.59,17.59,0,0,0-19.59,0,18.88,18.88,0,0,0-6.33,7.88,26,26,0,0,0-2.17,10.65,26.31,26.31,0,0,0,2.17,10.7,18.81,18.81,0,0,0,6.33,7.94,17.59,17.59,0,0,0,19.59,0Z" transform="translate(-197.78 -437.98)" />
    <path d="M484.71,500.5a22.28,22.28,0,0,1-7.41,6.68,19.69,19.69,0,0,1-10,2.64,20.73,20.73,0,0,1-19.59-12.41,35.73,35.73,0,0,1,0-27.73,21.54,21.54,0,0,1,7.93-9.24,21.26,21.26,0,0,1,11.66-3.28,20,20,0,0,1,9.8,2.49,22.83,22.83,0,0,1,7.62,6.84V439.33h5.49v69.15h-5.49Zm0-29.38a18.48,18.48,0,0,0-6.84-6.52,18.8,18.8,0,0,0-9.64-2.67A15.34,15.34,0,0,0,455.42,468q-4.71,6.1-4.71,15.5T455.42,499a15.38,15.38,0,0,0,12.81,6.06,19.13,19.13,0,0,0,9.64-2.61,18.47,18.47,0,0,0,6.84-6.37Z" transform="translate(-197.78 -437.98)" />
    <path d="M505.9,470.25a25,25,0,0,1,8.66-9.56,23.82,23.82,0,0,1,25,.05,22.92,22.92,0,0,1,8.13,9.59,31.23,31.23,0,0,1,2.8,13.37v1.45H508.65a24.49,24.49,0,0,0,2.75,10.16,18.54,18.54,0,0,0,6.79,7.28,18.82,18.82,0,0,0,10,2.67,22.85,22.85,0,0,0,9-1.76,21.53,21.53,0,0,0,7.42-5.18l2.79,3.52q-7.77,8-19.59,8a25,25,0,0,1-13-3.37A23.66,23.66,0,0,1,506,497.1a29.84,29.84,0,0,1-.06-26.85Zm11.25-5.71a18.8,18.8,0,0,0-6.17,7.13,22.38,22.38,0,0,0-2.33,8.92H545a22.09,22.09,0,0,0-2.12-8.87,17.79,17.79,0,0,0-6.12-7.18,17.23,17.23,0,0,0-10-2.82A16.44,16.44,0,0,0,517.15,464.54Z" transform="translate(-197.78 -437.98)" />
    <path d="M562,439.33h12.13v59.4h30.48v9.75H562Z" transform="translate(-197.78 -437.98)" />
    <path d="M614.64,449.49a6.66,6.66,0,0,1,0-9.54,6.57,6.57,0,0,1,4.73-2,6.74,6.74,0,1,1-4.73,11.51Zm-.67,8.92h10.89v50.07H614Z" transform="translate(-197.78 -437.98)" />
    <path d="M671.4,476.55q0-5.71-2.59-8.14T661.35,466a14.52,14.52,0,0,0-7.36,2,17.84,17.84,0,0,0-5.49,4.77v34.94H637.61V458.41H648.5v6.84a23.65,23.65,0,0,1,7.46-5.7,22,22,0,0,1,10.16-2.39q8,0,12.07,4.15t4.1,11.92v35.25H671.4Z" transform="translate(-197.78 -437.98)" />
    <path d="M699.49,513.56a16.82,16.82,0,0,0,6.8,4.92,25.1,25.1,0,0,0,9.07,1.5,16.66,16.66,0,0,0,10.52-3.32q4.29-3.33,4.3-10.46v-6a22.59,22.59,0,0,1-7.16,6.07,18.55,18.55,0,0,1-8.91,2.23,21.91,21.91,0,0,1-11.45-3,20.34,20.34,0,0,1-7.88-8.8,34.76,34.76,0,0,1,0-27.57,20.73,20.73,0,0,1,7.88-8.9,21.67,21.67,0,0,1,11.45-3,19.17,19.17,0,0,1,8.91,2.13,21,21,0,0,1,7.16,6.06v-6.94h10.88v47.48q0,12.33-7.41,17.62t-18.29,5.29a35.51,35.51,0,0,1-11.56-1.7,27.36,27.36,0,0,1-9.38-5.68ZM730.18,473a15.22,15.22,0,0,0-5.49-5,14.76,14.76,0,0,0-7.36-2.07,12.67,12.67,0,0,0-10.27,4.62c-2.55,3.08-3.84,7.16-3.84,12.23s1.29,9.15,3.84,12.23a12.67,12.67,0,0,0,10.27,4.62,14.76,14.76,0,0,0,7.36-2.07,15.22,15.22,0,0,0,5.49-5Z" transform="translate(-197.78 -437.98)" />
    <path d="M762.89,506.29a24,24,0,0,1-9-9.55,29.25,29.25,0,0,1,0-26.49,24,24,0,0,1,9-9.56,27.87,27.87,0,0,1,27.15,0,24.11,24.11,0,0,1,9,9.51,27.84,27.84,0,0,1,3.16,13.24,28.16,28.16,0,0,1-3.16,13.3,24,24,0,0,1-9,9.55,27.87,27.87,0,0,1-27.15,0ZM787,495.94a20,20,0,0,0,3.89-12.5A19.77,19.77,0,0,0,787,471.05a13.55,13.55,0,0,0-21.15,0A19.77,19.77,0,0,0,762,483.44a20,20,0,0,0,3.89,12.5,13.55,13.55,0,0,0,21.15,0Z" transform="translate(-197.78 -437.98)" />
    <circle class="cls-1" cx="30.54" cy="35.13" r="8.25" />
    <circle class="cls-2" cx="52.89" cy="35.13" r="8.25" />
    <path d="M262,494.05a30.44,30.44,0,0,1-46.75-.69l-1.31-1.61-9.57,5.09,4.48-27.55a30.43,30.43,0,0,1,51.87-16.36,23.88,23.88,0,0,1,4.71-2.22,35.42,35.42,0,0,0-61.54,17.77L197.78,506l14.91-7.94A35.46,35.46,0,0,0,266.92,496,23.12,23.12,0,0,1,262,494.05Z" transform="translate(-197.78 -437.98)" />
    <circle class="cls-3" cx="75.24" cy="35.13" r="8.25" />
</svg>